<?xml version="1.0" encoding="UTF-8" standalone="no"?>
<!DOCTYPE svg PUBLIC "-//W3C//DTD SVG 1.1//EN" "http://www.w3.org/Graphics/SVG/1.1/DTD/svg11.dtd">
<svg width="100%" height="100%" viewBox="0 0 128 64" version="1.1" xmlns="http://www.w3.org/2000/svg" xmlns:xlink="http://www.w3.org/1999/xlink" xml:space="preserve" style="fill-rule:evenodd;clip-rule:evenodd;stroke-linejoin:round;stroke-miterlimit:1.41421;">
    <path d="M13.775,6.012C13.758,6.027 13.742,6.042 13.726,6.058C13.682,6.099 13.64,6.141 13.598,6.184C13.588,6.195 13.578,6.206 13.568,6.217C13.554,6.231 13.54,6.246 13.527,6.261L13.522,6.266L13.518,6.27C13.446,6.351 13.377,6.435 13.311,6.521L13.309,6.524C13.108,6.791 12.942,7.085 12.819,7.4C12.814,7.412 12.809,7.423 12.805,7.435C12.786,7.484 12.769,7.533 12.752,7.583L12.748,7.597L12.741,7.618C12.708,7.719 12.68,7.823 12.656,7.927C12.652,7.945 12.648,7.962 12.644,7.98C12.59,8.233 12.562,8.495 12.562,8.764C12.562,10.809 14.199,12.474 16.319,12.521C14.228,12.568 12.609,14.188 12.562,16.279C12.515,18.37 10.896,19.99 8.805,20.037C6.684,19.989 5.048,18.324 5.048,16.279L5.048,16.271L5.048,8.764C5.048,6.719 6.684,5.054 8.805,5.006L16.319,5.006L16.319,5.006C17.943,5.077 19.243,6.02 19.787,7.321L19.791,7.331L20.002,8.016L20.013,8.128L20.076,8.764L20.076,8.772C20.03,10.855 18.411,12.475 16.319,12.521C14.199,12.474 12.562,10.809 12.562,8.764C12.562,8.495 12.59,8.233 12.644,7.98C12.648,7.962 12.652,7.945 12.656,7.927C12.68,7.823 12.708,7.719 12.741,7.618L12.748,7.597L12.752,7.583C12.769,7.533 12.786,7.484 12.805,7.435C12.81,7.423 12.814,7.412 12.819,7.4C12.942,7.085 13.108,6.791 13.309,6.524L13.311,6.521C13.377,6.435 13.446,6.351 13.518,6.27L13.522,6.266L13.527,6.261C13.54,6.246 13.554,6.231 13.568,6.217C13.578,6.206 13.588,6.195 13.598,6.184L13.598,6.184C13.64,6.141 13.682,6.099 13.726,6.058C13.736,6.048 13.747,6.037 13.758,6.027L13.775,6.012ZM12.387,15.189C12.493,15.532 12.553,15.898 12.562,16.279C12.553,15.898 12.493,15.532 12.387,15.189ZM12.387,15.189C12.38,15.167 12.373,15.145 12.366,15.122C12.373,15.145 12.38,15.167 12.387,15.189ZM12.354,15.089C12.347,15.068 12.34,15.047 12.332,15.026L12.328,15.012L12.32,14.991C12.324,15.002 12.328,15.014 12.332,15.026C12.34,15.047 12.347,15.068 12.354,15.089L12.363,15.116L12.358,15.1L12.354,15.089ZM12.309,14.963C12.302,14.943 12.294,14.924 12.286,14.904C12.294,14.924 12.302,14.943 12.309,14.963L12.318,14.986L12.311,14.969L12.309,14.963ZM12.285,14.901C12.28,14.887 12.275,14.874 12.269,14.861L12.278,14.882L12.285,14.901ZM12.26,14.84C12.237,14.783 12.212,14.727 12.185,14.671C12.212,14.727 12.237,14.783 12.26,14.84ZM12.184,14.668C12.067,14.423 11.926,14.193 11.763,13.981L11.759,13.975L11.752,13.967C11.52,13.668 11.246,13.407 10.939,13.192L10.935,13.189L10.933,13.188C10.586,12.946 10.198,12.763 9.782,12.65L9.775,12.649L9.752,12.643C9.45,12.563 9.132,12.521 8.804,12.521C8.374,12.521 7.961,12.594 7.576,12.728L7.573,12.729L7.567,12.731C6.126,13.237 5.084,14.606 5.048,16.271C5.084,14.606 6.126,13.237 7.567,12.731L7.573,12.729L7.576,12.728C7.961,12.594 8.374,12.521 8.804,12.521C9.132,12.521 9.45,12.563 9.752,12.643L9.782,12.65C10.198,12.763 10.586,12.946 10.933,13.188L10.939,13.192C11.246,13.407 11.52,13.668 11.752,13.967L11.763,13.981C11.926,14.193 12.067,14.423 12.184,14.668ZM13.842,5.952C13.831,5.962 13.819,5.972 13.808,5.982L13.825,5.967L13.842,5.952ZM13.876,5.923C13.887,5.913 13.899,5.904 13.91,5.894L13.928,5.88C13.91,5.894 13.893,5.908 13.876,5.923ZM13.975,5.841C13.986,5.833 13.997,5.824 14.009,5.815C14.094,5.749 14.183,5.686 14.274,5.627C14.299,5.611 14.324,5.595 14.349,5.58C14.769,5.322 15.245,5.141 15.76,5.057C15.768,5.056 15.776,5.055 15.784,5.054C15.801,5.051 15.817,5.049 15.834,5.046L15.856,5.043L15.865,5.042C15.894,5.038 15.923,5.034 15.952,5.031L15.976,5.028L15.976,5.028C16.089,5.016 16.203,5.009 16.319,5.006C16.203,5.009 16.089,5.016 15.976,5.028L15.976,5.028L15.952,5.031C15.923,5.034 15.894,5.038 15.865,5.042L15.856,5.043L15.834,5.046C15.817,5.049 15.801,5.051 15.784,5.054C15.776,5.055 15.768,5.056 15.76,5.057C15.245,5.141 14.769,5.322 14.349,5.58C14.324,5.595 14.299,5.611 14.274,5.627C14.183,5.686 14.094,5.749 14.009,5.815C13.997,5.824 13.986,5.833 13.975,5.841Z"/>
    <g transform="matrix(-1,-1.22465e-16,1.22465e-16,-1,128.004,64.026)">
        <path d="M13.775,6.012C13.758,6.027 13.742,6.042 13.726,6.058C13.682,6.099 13.64,6.141 13.598,6.184C13.588,6.195 13.578,6.206 13.568,6.217C13.554,6.231 13.54,6.246 13.527,6.261L13.522,6.266L13.518,6.27C13.446,6.351 13.377,6.435 13.311,6.521L13.309,6.524C13.108,6.791 12.942,7.085 12.819,7.4C12.814,7.412 12.809,7.423 12.805,7.435C12.786,7.484 12.769,7.533 12.752,7.583L12.748,7.597L12.741,7.618C12.708,7.719 12.68,7.823 12.656,7.927C12.652,7.945 12.648,7.962 12.644,7.98C12.59,8.233 12.562,8.495 12.562,8.764C12.562,10.809 14.199,12.474 16.319,12.521C14.228,12.568 12.609,14.188 12.562,16.279C12.515,18.37 10.896,19.99 8.805,20.037C6.684,19.989 5.048,18.324 5.048,16.279L5.048,16.271L5.048,8.764C5.048,6.719 6.684,5.054 8.805,5.006L16.319,5.006L16.319,5.006C17.943,5.077 19.243,6.02 19.787,7.321L19.791,7.331L20.002,8.016L20.013,8.128L20.076,8.764L20.076,8.772C20.03,10.855 18.411,12.475 16.319,12.521C14.199,12.474 12.562,10.809 12.562,8.764C12.562,8.495 12.59,8.233 12.644,7.98C12.648,7.962 12.652,7.945 12.656,7.927C12.68,7.823 12.708,7.719 12.741,7.618L12.748,7.597L12.752,7.583C12.769,7.533 12.786,7.484 12.805,7.435C12.81,7.423 12.814,7.412 12.819,7.4C12.942,7.085 13.108,6.791 13.309,6.524L13.311,6.521C13.377,6.435 13.446,6.351 13.518,6.27L13.522,6.266L13.527,6.261C13.54,6.246 13.554,6.231 13.568,6.217C13.578,6.206 13.588,6.195 13.598,6.184L13.598,6.184C13.64,6.141 13.682,6.099 13.726,6.058C13.736,6.048 13.747,6.037 13.758,6.027L13.775,6.012ZM12.387,15.189C12.493,15.532 12.553,15.898 12.562,16.279C12.553,15.898 12.493,15.532 12.387,15.189ZM12.387,15.189C12.38,15.167 12.373,15.145 12.366,15.122C12.373,15.145 12.38,15.167 12.387,15.189ZM12.354,15.089C12.347,15.068 12.34,15.047 12.332,15.026L12.328,15.012L12.32,14.991C12.324,15.002 12.328,15.014 12.332,15.026C12.34,15.047 12.347,15.068 12.354,15.089L12.363,15.116L12.358,15.1L12.354,15.089ZM12.309,14.963C12.302,14.943 12.294,14.924 12.286,14.904C12.294,14.924 12.302,14.943 12.309,14.963L12.318,14.986L12.311,14.969L12.309,14.963ZM12.285,14.901C12.28,14.887 12.275,14.874 12.269,14.861L12.278,14.882L12.285,14.901ZM12.26,14.84C12.237,14.783 12.212,14.727 12.185,14.671C12.212,14.727 12.237,14.783 12.26,14.84ZM12.184,14.668C12.067,14.423 11.926,14.193 11.763,13.981L11.759,13.975L11.752,13.967C11.52,13.668 11.246,13.407 10.939,13.192L10.935,13.189L10.933,13.188C10.586,12.946 10.198,12.763 9.782,12.65L9.775,12.649L9.752,12.643C9.45,12.563 9.132,12.521 8.804,12.521C8.374,12.521 7.961,12.594 7.576,12.728L7.573,12.729L7.567,12.731C6.126,13.237 5.084,14.606 5.048,16.271C5.084,14.606 6.126,13.237 7.567,12.731L7.573,12.729L7.576,12.728C7.961,12.594 8.374,12.521 8.804,12.521C9.132,12.521 9.45,12.563 9.752,12.643L9.782,12.65C10.198,12.763 10.586,12.946 10.933,13.188L10.939,13.192C11.246,13.407 11.52,13.668 11.752,13.967L11.763,13.981C11.926,14.193 12.067,14.423 12.184,14.668ZM13.842,5.952C13.831,5.962 13.819,5.972 13.808,5.982L13.825,5.967L13.842,5.952ZM13.876,5.923C13.887,5.913 13.899,5.904 13.91,5.894L13.928,5.88C13.91,5.894 13.893,5.908 13.876,5.923ZM13.975,5.841C13.986,5.833 13.997,5.824 14.009,5.815C14.094,5.749 14.183,5.686 14.274,5.627C14.299,5.611 14.324,5.595 14.349,5.58C14.769,5.322 15.245,5.141 15.76,5.057C15.768,5.056 15.776,5.055 15.784,5.054C15.801,5.051 15.817,5.049 15.834,5.046L15.856,5.043L15.865,5.042C15.894,5.038 15.923,5.034 15.952,5.031L15.976,5.028L15.976,5.028C16.089,5.016 16.203,5.009 16.319,5.006C16.203,5.009 16.089,5.016 15.976,5.028L15.976,5.028L15.952,5.031C15.923,5.034 15.894,5.038 15.865,5.042L15.856,5.043L15.834,5.046C15.817,5.049 15.801,5.051 15.784,5.054C15.776,5.055 15.768,5.056 15.76,5.057C15.245,5.141 14.769,5.322 14.349,5.58C14.324,5.595 14.299,5.611 14.274,5.627C14.183,5.686 14.094,5.749 14.009,5.815C13.997,5.824 13.986,5.833 13.975,5.841Z"/>
    </g>
    <g transform="matrix(6.12323e-17,1,-1,6.12323e-17,127.964,-0.0404576)">
        <path d="M13.775,6.012C13.758,6.027 13.742,6.042 13.726,6.058C13.682,6.099 13.64,6.141 13.598,6.184C13.588,6.195 13.578,6.206 13.568,6.217C13.554,6.231 13.54,6.246 13.527,6.261L13.522,6.266L13.518,6.27C13.446,6.351 13.377,6.435 13.311,6.521L13.309,6.524C13.108,6.791 12.942,7.085 12.819,7.4C12.814,7.412 12.809,7.423 12.805,7.435C12.786,7.484 12.769,7.533 12.752,7.583L12.748,7.597L12.741,7.618C12.708,7.719 12.68,7.823 12.656,7.927C12.652,7.945 12.648,7.962 12.644,7.98C12.59,8.233 12.562,8.495 12.562,8.764C12.562,10.809 14.199,12.474 16.319,12.521C14.228,12.568 12.609,14.188 12.562,16.279C12.515,18.37 10.896,19.99 8.805,20.037C6.684,19.989 5.048,18.324 5.048,16.279L5.048,16.271L5.048,8.764C5.048,6.719 6.684,5.054 8.805,5.006L16.319,5.006L16.319,5.006C17.943,5.077 19.243,6.02 19.787,7.321L19.791,7.331L20.002,8.016L20.013,8.128L20.076,8.764L20.076,8.772C20.03,10.855 18.411,12.475 16.319,12.521C14.199,12.474 12.562,10.809 12.562,8.764C12.562,8.495 12.59,8.233 12.644,7.98C12.648,7.962 12.652,7.945 12.656,7.927C12.68,7.823 12.708,7.719 12.741,7.618L12.748,7.597L12.752,7.583C12.769,7.533 12.786,7.484 12.805,7.435C12.81,7.423 12.814,7.412 12.819,7.4C12.942,7.085 13.108,6.791 13.309,6.524L13.311,6.521C13.377,6.435 13.446,6.351 13.518,6.27L13.522,6.266L13.527,6.261C13.54,6.246 13.554,6.231 13.568,6.217C13.578,6.206 13.588,6.195 13.598,6.184L13.598,6.184C13.64,6.141 13.682,6.099 13.726,6.058C13.736,6.048 13.747,6.037 13.758,6.027L13.775,6.012ZM12.387,15.189C12.493,15.532 12.553,15.898 12.562,16.279C12.553,15.898 12.493,15.532 12.387,15.189ZM12.387,15.189C12.38,15.167 12.373,15.145 12.366,15.122C12.373,15.145 12.38,15.167 12.387,15.189ZM12.354,15.089C12.347,15.068 12.34,15.047 12.332,15.026L12.328,15.012L12.32,14.991C12.324,15.002 12.328,15.014 12.332,15.026C12.34,15.047 12.347,15.068 12.354,15.089L12.363,15.116L12.358,15.1L12.354,15.089ZM12.309,14.963C12.302,14.943 12.294,14.924 12.286,14.904C12.294,14.924 12.302,14.943 12.309,14.963L12.318,14.986L12.311,14.969L12.309,14.963ZM12.285,14.901C12.28,14.887 12.275,14.874 12.269,14.861L12.278,14.882L12.285,14.901ZM12.26,14.84C12.237,14.783 12.212,14.727 12.185,14.671C12.212,14.727 12.237,14.783 12.26,14.84ZM12.184,14.668C12.067,14.423 11.926,14.193 11.763,13.981L11.759,13.975L11.752,13.967C11.52,13.668 11.246,13.407 10.939,13.192L10.935,13.189L10.933,13.188C10.586,12.946 10.198,12.763 9.782,12.65L9.775,12.649L9.752,12.643C9.45,12.563 9.132,12.521 8.804,12.521C8.374,12.521 7.961,12.594 7.576,12.728L7.573,12.729L7.567,12.731C6.126,13.237 5.084,14.606 5.048,16.271C5.084,14.606 6.126,13.237 7.567,12.731L7.573,12.729L7.576,12.728C7.961,12.594 8.374,12.521 8.804,12.521C9.132,12.521 9.45,12.563 9.752,12.643L9.782,12.65C10.198,12.763 10.586,12.946 10.933,13.188L10.939,13.192C11.246,13.407 11.52,13.668 11.752,13.967L11.763,13.981C11.926,14.193 12.067,14.423 12.184,14.668ZM13.842,5.952C13.831,5.962 13.819,5.972 13.808,5.982L13.825,5.967L13.842,5.952ZM13.876,5.923C13.887,5.913 13.899,5.904 13.91,5.894L13.928,5.88C13.91,5.894 13.893,5.908 13.876,5.923ZM13.975,5.841C13.986,5.833 13.997,5.824 14.009,5.815C14.094,5.749 14.183,5.686 14.274,5.627C14.299,5.611 14.324,5.595 14.349,5.58C14.769,5.322 15.245,5.141 15.76,5.057C15.768,5.056 15.776,5.055 15.784,5.054C15.801,5.051 15.817,5.049 15.834,5.046L15.856,5.043L15.865,5.042C15.894,5.038 15.923,5.034 15.952,5.031L15.976,5.028L15.976,5.028C16.089,5.016 16.203,5.009 16.319,5.006C16.203,5.009 16.089,5.016 15.976,5.028L15.976,5.028L15.952,5.031C15.923,5.034 15.894,5.038 15.865,5.042L15.856,5.043L15.834,5.046C15.817,5.049 15.801,5.051 15.784,5.054C15.776,5.055 15.768,5.056 15.76,5.057C15.245,5.141 14.769,5.322 14.349,5.58C14.324,5.595 14.299,5.611 14.274,5.627C14.183,5.686 14.094,5.749 14.009,5.815C13.997,5.824 13.986,5.833 13.975,5.841Z"/>
    </g>
    <g transform="matrix(6.12323e-17,-1,1,6.12323e-17,0.0412437,64.0673)">
        <path d="M13.775,6.012C13.758,6.027 13.742,6.042 13.726,6.058C13.682,6.099 13.64,6.141 13.598,6.184C13.588,6.195 13.578,6.206 13.568,6.217C13.554,6.231 13.54,6.246 13.527,6.261L13.522,6.266L13.518,6.27C13.446,6.351 13.377,6.435 13.311,6.521L13.309,6.524C13.108,6.791 12.942,7.085 12.819,7.4C12.814,7.412 12.809,7.423 12.805,7.435C12.786,7.484 12.769,7.533 12.752,7.583L12.748,7.597L12.741,7.618C12.708,7.719 12.68,7.823 12.656,7.927C12.652,7.945 12.648,7.962 12.644,7.98C12.59,8.233 12.562,8.495 12.562,8.764C12.562,10.809 14.199,12.474 16.319,12.521C14.228,12.568 12.609,14.188 12.562,16.279C12.515,18.37 10.896,19.99 8.805,20.037C6.684,19.989 5.048,18.324 5.048,16.279L5.048,16.271L5.048,8.764C5.048,6.719 6.684,5.054 8.805,5.006L16.319,5.006L16.319,5.006C17.943,5.077 19.243,6.02 19.787,7.321L19.791,7.331L20.002,8.016L20.013,8.128L20.076,8.764L20.076,8.772C20.03,10.855 18.411,12.475 16.319,12.521C14.199,12.474 12.562,10.809 12.562,8.764C12.562,8.495 12.59,8.233 12.644,7.98C12.648,7.962 12.652,7.945 12.656,7.927C12.68,7.823 12.708,7.719 12.741,7.618L12.748,7.597L12.752,7.583C12.769,7.533 12.786,7.484 12.805,7.435C12.81,7.423 12.814,7.412 12.819,7.4C12.942,7.085 13.108,6.791 13.309,6.524L13.311,6.521C13.377,6.435 13.446,6.351 13.518,6.27L13.522,6.266L13.527,6.261C13.54,6.246 13.554,6.231 13.568,6.217C13.578,6.206 13.588,6.195 13.598,6.184L13.598,6.184C13.64,6.141 13.682,6.099 13.726,6.058C13.736,6.048 13.747,6.037 13.758,6.027L13.775,6.012ZM12.387,15.189C12.493,15.532 12.553,15.898 12.562,16.279C12.553,15.898 12.493,15.532 12.387,15.189ZM12.387,15.189C12.38,15.167 12.373,15.145 12.366,15.122C12.373,15.145 12.38,15.167 12.387,15.189ZM12.354,15.089C12.347,15.068 12.34,15.047 12.332,15.026L12.328,15.012L12.32,14.991C12.324,15.002 12.328,15.014 12.332,15.026C12.34,15.047 12.347,15.068 12.354,15.089L12.363,15.116L12.358,15.1L12.354,15.089ZM12.309,14.963C12.302,14.943 12.294,14.924 12.286,14.904C12.294,14.924 12.302,14.943 12.309,14.963L12.318,14.986L12.311,14.969L12.309,14.963ZM12.285,14.901C12.28,14.887 12.275,14.874 12.269,14.861L12.278,14.882L12.285,14.901ZM12.26,14.84C12.237,14.783 12.212,14.727 12.185,14.671C12.212,14.727 12.237,14.783 12.26,14.84ZM12.184,14.668C12.067,14.423 11.926,14.193 11.763,13.981L11.759,13.975L11.752,13.967C11.52,13.668 11.246,13.407 10.939,13.192L10.935,13.189L10.933,13.188C10.586,12.946 10.198,12.763 9.782,12.65L9.775,12.649L9.752,12.643C9.45,12.563 9.132,12.521 8.804,12.521C8.374,12.521 7.961,12.594 7.576,12.728L7.573,12.729L7.567,12.731C6.126,13.237 5.084,14.606 5.048,16.271C5.084,14.606 6.126,13.237 7.567,12.731L7.573,12.729L7.576,12.728C7.961,12.594 8.374,12.521 8.804,12.521C9.132,12.521 9.45,12.563 9.752,12.643L9.782,12.65C10.198,12.763 10.586,12.946 10.933,13.188L10.939,13.192C11.246,13.407 11.52,13.668 11.752,13.967L11.763,13.981C11.926,14.193 12.067,14.423 12.184,14.668ZM13.842,5.952C13.831,5.962 13.819,5.972 13.808,5.982L13.825,5.967L13.842,5.952ZM13.876,5.923C13.887,5.913 13.899,5.904 13.91,5.894L13.928,5.88C13.91,5.894 13.893,5.908 13.876,5.923ZM13.975,5.841C13.986,5.833 13.997,5.824 14.009,5.815C14.094,5.749 14.183,5.686 14.274,5.627C14.299,5.611 14.324,5.595 14.349,5.58C14.769,5.322 15.245,5.141 15.76,5.057C15.768,5.056 15.776,5.055 15.784,5.054C15.801,5.051 15.817,5.049 15.834,5.046L15.856,5.043L15.865,5.042C15.894,5.038 15.923,5.034 15.952,5.031L15.976,5.028L15.976,5.028C16.089,5.016 16.203,5.009 16.319,5.006C16.203,5.009 16.089,5.016 15.976,5.028L15.976,5.028L15.952,5.031C15.923,5.034 15.894,5.038 15.865,5.042L15.856,5.043L15.834,5.046C15.817,5.049 15.801,5.051 15.784,5.054C15.776,5.055 15.768,5.056 15.76,5.057C15.245,5.141 14.769,5.322 14.349,5.58C14.324,5.595 14.299,5.611 14.274,5.627C14.183,5.686 14.094,5.749 14.009,5.815C13.997,5.824 13.986,5.833 13.975,5.841Z"/>
    </g>
</svg>
