<?xml version="1.0" encoding="UTF-8" standalone="no"?>
<!DOCTYPE svg PUBLIC "-//W3C//DTD SVG 1.1//EN" "http://www.w3.org/Graphics/SVG/1.1/DTD/svg11.dtd">
<svg width="100%" height="100%" viewBox="0 0 128 64" version="1.1" xmlns="http://www.w3.org/2000/svg" xmlns:xlink="http://www.w3.org/1999/xlink" xml:space="preserve" style="fill-rule:evenodd;clip-rule:evenodd;stroke-linejoin:round;stroke-miterlimit:1.41421;">
    <g transform="matrix(0.539913,0,0,0.539913,36.0385,13.4592)">
        <circle cx="51.789" cy="34.34" r="4.63"/>
    </g>
    <g transform="matrix(1,0,0,1,-30.2944,-13.7334)">
        <path d="M50.244,18.724C51.624,18.724 52.744,19.844 52.744,21.224C52.744,22.604 51.624,23.724 50.244,23.724L40.244,23.768L40.244,33.724C40.244,35.104 39.124,36.224 37.744,36.224C36.365,36.224 35.244,35.104 35.244,33.724L35.244,23.724C35.244,20.965 37.485,18.724 40.244,18.724C40.244,18.724 50.244,18.724 50.244,18.724Z"/>
    </g>
    <g transform="matrix(6.12323e-17,-1,1,6.12323e-17,-13.7741,94.2152)">
        <path d="M50.244,18.724C51.624,18.724 52.744,19.844 52.744,21.224C52.744,22.604 51.624,23.724 50.244,23.724L40.244,23.768L40.244,33.724C40.244,35.104 39.124,36.224 37.744,36.224C36.365,36.224 35.244,35.104 35.244,33.724L35.244,23.724C35.244,20.965 37.485,18.724 40.244,18.724C40.244,18.724 50.244,18.724 50.244,18.724Z"/>
    </g>
    <g transform="matrix(-1,1.22465e-16,-1.22465e-16,-1,158.195,77.6949)">
        <path d="M50.244,18.724C51.624,18.724 52.744,19.844 52.744,21.224C52.744,22.604 51.624,23.724 50.244,23.724L40.244,23.768L40.244,33.724C40.244,35.104 39.124,36.224 37.744,36.224C36.365,36.224 35.244,35.104 35.244,33.724L35.244,23.724C35.244,20.965 37.485,18.724 40.244,18.724C40.244,18.724 50.244,18.724 50.244,18.724Z"/>
    </g>
    <g transform="matrix(6.12323e-17,1,-1,6.12323e-17,141.675,-30.2537)">
        <path d="M50.244,18.724C51.624,18.724 52.744,19.844 52.744,21.224C52.744,22.604 51.624,23.724 50.244,23.724L40.244,23.768L40.244,33.724C40.244,35.104 39.124,36.224 37.744,36.224C36.365,36.224 35.244,35.104 35.244,33.724L35.244,23.724C35.244,20.965 37.485,18.724 40.244,18.724C40.244,18.724 50.244,18.724 50.244,18.724Z"/>
    </g>
</svg>
